<svg xmlns="http://www.w3.org/2000/svg" width="1066" height="1209">
  <defs>
    <linearGradient id="a" x1="72.8" x2="968.8" y1="824.9" y2="440.9" gradientTransform="matrix(1 0 0 -1 0 1198)" gradientUnits="userSpaceOnUse">
      <stop offset="0" stop-color="#ac45f1"/>
      <stop offset=".1" stop-color="#a64bf1"/>
      <stop offset=".3" stop-color="#955ef2"/>
      <stop offset=".6" stop-color="#7a7ef4"/>
      <stop offset=".8" stop-color="#55a9f6"/>
      <stop offset="1" stop-color="#3dc6f8"/>
    </linearGradient>
    <linearGradient id="c" x1="288.1" x2="751.5" y1="325.1" y2="632" gradientUnits="userSpaceOnUse">
      <stop offset="0" stop-color="#fff"/>
      <stop offset=".4" stop-color="#fbfbfb"/>
      <stop offset=".7" stop-color="#f2f2f2"/>
      <stop offset=".9" stop-color="#e2e2e2"/>
      <stop offset="1" stop-color="#dedede"/>
    </linearGradient>
    <filter id="b" width="1066" height="1209" x="0" y="0" filterUnits="userSpaceOnUse">
      <feOffset dx="12" dy="12"/>
      <feGaussianBlur result="uuid-fa7970ca-d4b3-4fb6-b731-42d6da2b18b5" stdDeviation="34"/>
      <feFlood flood-color="#000" flood-opacity=".3"/>
      <feComposite in2="uuid-fa7970ca-d4b3-4fb6-b731-42d6da2b18b5" operator="in"/>
      <feComposite in="SourceGraphic"/>
    </filter>
    <filter id="d" width="744" height="659" x="163" y="165" filterUnits="userSpaceOnUse">
      <feOffset dx="14" dy="14"/>
      <feGaussianBlur result="uuid-dae9ca76-74dd-45db-b783-7a15321092db" stdDeviation="28"/>
      <feFlood flood-color="#000" flood-opacity=".5"/>
      <feComposite in2="uuid-dae9ca76-74dd-45db-b783-7a15321092db" operator="in"/>
      <feComposite in="SourceGraphic"/>
    </filter>
  </defs>
  <path fill="url(#a)" d="M515 90c-92 0-199 16-270 66C106 256 64 427 107 594c52 204 282 406 385 490 17 14 41 14 58 0 103-84 333-286 385-490 43-167 1-338-139-438-70-50-177-66-270-66" filter="url(#b)"/>
  <path fill="url(#c)" d="M515 235c-151 0-282 54-282 246 0 174 118 245 282 245h11c165 0 283-71 283-245 0-192-131-246-283-246" filter="url(#d)"/>
  <path d="M612 440c0 31 12 56 39 56s38-25 38-56-12-56-38-56-39 25-39 56Zm-182 0c0 31-12 56-39 56s-38-25-38-56 12-56 38-56 39 25 39 56Z"/>
</svg>
